<svg xmlns="http://www.w3.org/2000/svg" version="1.2" viewBox="0 0 1024 1024" preserveAspectRatio="xMidYMid meet" baseProfile="tiny-ps" xml:space="preserve"><title>Brand logo</title>
<path d="M0 0 C337.92 0 675.84 0 1024 0 C1024 337.92 1024 675.84 1024 1024 C686.08 1024 348.16 1024 0 1024 C0 686.08 0 348.16 0 0 Z " fill="#FEF7F4" transform="translate(0,0)"/>
<path d="M0 0 C1.10172546 0.00337372 2.20345093 0.00674744 3.33856201 0.01022339 C29.28961616 0.12527593 52.9061803 3.16802897 77.625 11.4375 C78.85041504 11.83727051 78.85041504 11.83727051 80.10058594 12.24511719 C108.99390065 21.77261898 135.63098563 36.70903165 158.45703125 56.79296875 C159.0914917 57.34855469 159.72595215 57.90414062 160.37963867 58.4765625 C161.59859959 59.55089015 162.80892041 60.63512639 164.0090332 61.73046875 C167.69207109 65.0104205 167.69207109 65.0104205 172.625 65.4375 C175.21387244 63.41059057 175.21387244 63.41059057 177.875 60.6875 C190.39924855 48.73581078 204.80549444 39.29445731 219.625 30.4375 C220.25164551 30.06141602 220.87829102 29.68533203 221.52392578 29.29785156 C238.49796019 19.27437131 257.60776067 12.41282099 276.625 7.4375 C277.58019531 7.16679687 278.53539062 6.89609375 279.51953125 6.6171875 C298.11809463 1.561784 316.59997716 -0.25808426 335.8125 -0.0625 C337.4083493 -0.05469009 337.4083493 -0.05469009 339.03643799 -0.04672241 C355.8523532 0.04949001 372.13979384 0.87548683 388.625 4.4375 C389.93839355 4.71835449 389.93839355 4.71835449 391.27832031 5.00488281 C396.80938777 6.2351894 402.22317082 7.73049877 407.625 9.4375 C408.42276855 9.68870605 409.22053711 9.93991211 410.04248047 10.19873047 C440.35261322 19.92489411 468.39997363 34.71693671 492.625 55.4375 C493.78075952 56.40813641 494.9370394 57.37815345 496.09375 58.34765625 C505.71272025 66.44879194 514.5056877 74.7810555 522.37890625 84.6328125 C523.84186491 86.45960262 525.32796955 88.26816949 526.83984375 90.0546875 C550.46669349 118.04150072 566.44351501 153.18438441 574.06591797 188.8371582 C574.38460984 190.3194233 574.71101235 191.80019666 575.06085676 193.27541977 C579.94424059 214.21946152 580.07389496 235.55433412 580.03183305 256.93375528 C580.02702509 261.06796753 580.0396766 265.20213669 580.04985046 269.33633423 C580.06689147 277.39621792 580.0679102 285.45602317 580.06263756 293.51592017 C580.05857042 300.07078112 580.06006928 306.62561916 580.06538582 313.18047905 C580.06613424 314.11887042 580.06688266 315.05726179 580.06765376 316.02408926 C580.06918545 317.93121621 580.07072379 319.83834316 580.07226873 321.7454701 C580.08593802 339.5537421 580.08059329 357.36196993 580.06908352 375.17024087 C580.05913533 391.43089996 580.07212909 407.69144552 580.09601771 423.95208711 C580.1204409 440.70427145 580.13001001 457.45640298 580.12336498 474.20860475 C580.1198827 483.59181715 580.12204025 492.97494211 580.13961601 502.35814095 C580.15437747 510.33654687 580.15492097 518.31480357 580.1375451 526.2932067 C580.12906917 530.35611569 580.1268019 534.41875854 580.14219666 538.48165321 C580.2520049 569.69577478 580.2520049 569.69577478 575.625 582.4375 C575.23626929 583.55088273 574.84753859 584.66426546 574.44702816 585.81138706 C571.73046692 593.25794705 567.52939018 599.26557359 562.625 605.4375 C561.98820313 606.27539062 561.35140625 607.11328125 560.6953125 607.9765625 C549.85991314 620.85637683 532.27684474 629.70627927 515.625 631.4375 C494.97891129 632.63607363 475.78543181 628.92695752 459.6328125 615.26171875 C458.97023438 614.65972656 458.30765625 614.05773437 457.625 613.4375 C456.87992188 612.78394531 456.13484375 612.13039063 455.3671875 611.45703125 C442.72633298 599.69460899 434.4727614 582.60947681 433.43789387 565.30965793 C433.36351712 561.69302736 433.35066124 558.08112212 433.35998535 554.46372986 C433.35640876 553.06732858 433.35195568 551.67092933 433.34670877 550.27453333 C433.33485197 546.46074634 433.33521866 542.64704566 433.33764386 538.83324468 C433.33806496 534.71117774 433.32694997 530.58913993 433.31718445 526.46708679 C433.30175899 519.33107799 433.29332629 512.19508888 433.28947449 505.05906487 C433.28371573 494.73188315 433.2651112 484.40475431 433.24303395 474.07759602 C433.20734681 457.30784284 433.17901919 440.53808668 433.15673828 423.76831055 C433.15540329 422.76549856 433.1540683 421.76268658 433.15269285 420.72948635 C433.14191599 412.59266209 433.13149606 404.45583739 433.1210928 396.31901264 C433.11198219 389.20478099 433.10272966 382.09054954 433.09326172 374.97631836 C433.09126561 373.4734854 433.09126561 373.4734854 433.08922917 371.94029217 C433.06679345 355.23042346 433.03659754 338.52057739 433.00086927 321.81073195 C432.97922165 311.51013481 432.96458851 301.2095729 432.95903051 290.90895427 C432.95478069 283.85211577 432.94353597 276.79531087 432.92680657 269.73849099 C432.917411 265.6685289 432.91128387 261.5986296 432.91386986 257.52865601 C432.91618824 253.79992907 432.90932142 250.07133388 432.89529103 246.34263367 C432.8902125 244.36146954 432.89491382 242.3802877 432.90001154 240.39912361 C432.86513594 233.74454394 432.34275405 227.87008046 430.625 221.4375 C430.34269531 219.99890625 430.34269531 219.99890625 430.0546875 218.53125 C425.29849499 196.29102586 410.78352174 174.99482692 391.75 162.625 C375.06527024 152.22862221 358.44275219 147.26017035 338.875 147.25 C337.65039062 147.23775391 336.42578125 147.22550781 335.1640625 147.21289062 C328.05325815 147.2014707 321.51875094 147.68175529 314.625 149.4375 C313.53832031 149.69789063 312.45164062 149.95828125 311.33203125 150.2265625 C298.13095721 154.03901843 286.96416393 160.42894151 276.625 169.4375 C275.16707031 170.59958984 275.16707031 170.59958984 273.6796875 171.78515625 C257.96084806 184.89951447 247.25396278 207.39987451 244.625 227.4375 C244.48050012 231.03595921 244.48748862 234.63143311 244.49369812 238.23240662 C244.49158241 239.32134171 244.48946669 240.41027681 244.48728687 241.53220993 C244.48129405 245.18220931 244.48228652 248.83217404 244.4831543 252.48217773 C244.48012225 255.09908609 244.47660067 257.71599391 244.47262573 260.332901 C244.46452218 265.97057017 244.45957202 271.60823483 244.45633507 277.24590874 C244.45082627 286.1684394 244.43391519 295.09093209 244.41499329 304.01344299 C244.40863675 307.06967443 244.40232823 310.12590596 244.39601612 313.18213749 C244.39443236 313.9459275 244.3928486 314.70971751 244.39121684 315.49665267 C244.3732877 324.18713747 244.35705907 332.87762494 244.34204102 341.56811523 C244.34066514 342.36227233 244.33928927 343.15642942 244.33787171 343.97465188 C244.31597112 356.82605624 244.30519228 369.67745074 244.29767027 382.52887046 C244.28958027 395.74241179 244.26622801 408.95586921 244.2297166 422.1693626 C244.2077695 430.30777406 244.19800295 438.44601258 244.20421693 446.5844521 C244.2074079 452.17155306 244.19595427 457.75850709 244.17332252 463.34556257 C244.16073972 466.56168384 244.15659125 469.77741443 244.16573906 472.99355698 C244.20760214 489.37331701 243.68333972 504.04899421 235.8125 518.8125 C235.46775635 519.47822021 235.1230127 520.14394043 234.76782227 520.82983398 C231.92827421 526.16969494 228.68915246 530.9435751 224.625 535.4375 C224.09519531 536.04722656 223.56539062 536.65695312 223.01953125 537.28515625 C211.44586435 549.79351358 193.21675887 557.84556606 176.35546875 558.7890625 C155.23459023 559.5295244 137.16791868 554.43876779 121.25 540.125 C107.56551854 527.21776671 98.16896089 509.82589814 97.26222229 490.86411095 C97.07121767 484.0798739 97.10986404 477.29662801 97.14257812 470.51049805 C97.14038902 467.90698034 97.13638736 465.30346363 97.13072205 462.69995117 C97.12109627 457.1180491 97.12543992 451.53630386 97.1391449 445.95441246 C97.15863175 437.86462141 97.15201054 429.77500396 97.13857108 421.68520806 C97.11704427 408.53012032 97.11026297 395.37507383 97.11572266 382.2199707 C97.11604329 381.43468067 97.11636392 380.64939064 97.11669427 379.84030394 C97.11940585 373.47178467 97.12283656 367.10326583 97.12629986 360.73474693 C97.12929498 355.17187894 97.1320034 349.60901091 97.13427734 344.04614258 C97.13476561 342.87102801 97.13476561 342.87102801 97.13526374 341.67217376 C97.14022201 328.56570319 97.12946476 315.45928965 97.10770559 302.35283691 C97.09507644 294.29287834 97.09634039 286.2331567 97.11615646 278.17321131 C97.13036141 271.98482412 97.12409113 265.79660842 97.11065865 259.60822296 C97.10854093 257.08566469 97.11317175 254.56308946 97.1253643 252.04055977 C97.26593906 221.19789419 90.87326783 196.02060798 68.625 173.4375 C56.43161291 161.22372263 42.84969784 154.60345466 26.625 149.4375 C25.53171387 149.08461914 24.43842773 148.73173828 23.31201172 148.36816406 C17.52705554 146.90794337 11.74937926 147.06557288 5.82177734 147.06689453 C3.65770039 147.06256542 1.49574255 147.02631041 -0.66796875 146.98828125 C-23.81474361 146.80209733 -45.35318992 156.26677426 -62.078125 172.14453125 C-63.21507812 173.27955078 -63.21507812 173.27955078 -64.375 174.4375 C-65.51195312 175.55705078 -65.51195312 175.55705078 -66.671875 176.69921875 C-84.03321262 194.80888989 -91.88209786 219.07104437 -91.76026917 243.84086609 C-91.76428752 245.23517121 -91.76962033 246.62947303 -91.77613491 248.02376872 C-91.7901491 251.81330033 -91.78589954 255.60261494 -91.77842176 259.39215672 C-91.77364863 263.49511172 -91.78627498 267.59801906 -91.79678345 271.70095825 C-91.81270339 278.7981619 -91.81803979 285.89530857 -91.81625557 292.99252892 C-91.81386373 303.26567328 -91.82991016 313.53872715 -91.85070812 323.81184778 C-91.88417832 340.49833787 -91.90587662 357.18481982 -91.91870117 373.87133789 C-91.91985541 375.36689 -91.91985541 375.36689 -91.92103296 376.89265529 C-91.92413529 380.93254462 -91.9272181 384.97243396 -91.930273 389.01232333 C-91.93880808 400.13980936 -91.9497091 411.26729256 -91.96166992 422.39477539 C-91.96273794 423.39149534 -91.96380596 424.38821528 -91.96490634 425.41513886 C-91.98301112 442.04604043 -92.00900742 458.67692266 -92.03980106 475.30780536 C-92.05832515 485.5533895 -92.06926896 495.79893019 -92.07032298 506.04453132 C-92.07142815 513.0634981 -92.0793947 520.08243508 -92.09270663 527.10138925 C-92.10010849 531.14732653 -92.10423399 535.19319859 -92.09958839 539.23914146 C-92.09537056 542.94807143 -92.10038602 546.65687393 -92.11249625 550.36578546 C-92.11654215 552.33136631 -92.11081374 554.29695992 -92.10465056 556.26253527 C-92.20565904 577.61712089 -98.99865427 595.51377012 -113.5625 611.1875 C-121.7082551 618.92027102 -131.69768527 624.97458711 -142.375 628.4375 C-144.169375 629.0253125 -144.169375 629.0253125 -146 629.625 C-165.58984832 634.3410746 -186.22447955 631.93877405 -203.61914062 621.57568359 C-221.16089065 610.2047661 -232.3104767 593.62111493 -237.375 573.4375 C-238.68070704 566.58200144 -238.51398986 559.74131954 -238.50198364 552.7822113 C-238.50313664 551.38371508 -238.50472537 549.98521916 -238.50671089 548.58672386 C-238.51087995 544.75302456 -238.50882441 540.91935019 -238.50572467 537.0856508 C-238.50346078 532.94708805 -238.50695522 528.80852956 -238.50970459 524.66996765 C-238.51415149 516.5641902 -238.51319037 508.45842201 -238.51029195 500.3526442 C-238.5080326 493.76063412 -238.50772771 487.16862664 -238.50881577 480.57661629 C-238.508969 479.63798402 -238.50912223 478.69935174 -238.50928011 477.73227607 C-238.50959984 475.82530705 -238.50992405 473.91833802 -238.5102527 472.011369 C-238.51310461 454.12647043 -238.50982556 436.24157699 -238.50445233 418.35667927 C-238.49998966 403.02871785 -238.50075635 387.70076401 -238.50537109 372.37280273 C-238.51073076 354.56228433 -238.51282457 336.75177043 -238.50975883 318.94125134 C-238.50944029 317.03919892 -238.50912592 315.13714649 -238.50881577 313.23509407 C-238.50866149 312.29933146 -238.50850721 311.36356886 -238.50834826 310.39944981 C-238.50748691 303.82309135 -238.50893788 297.24673575 -238.51129532 290.67037773 C-238.51410921 282.64431416 -238.51332185 274.61826035 -238.50801457 266.59219789 C-238.50539816 262.50139611 -238.50433727 258.41061059 -238.50766373 254.31980896 C-238.51066973 250.56606987 -238.5089631 246.8123619 -238.50368617 243.05862559 C-238.502061 241.0760379 -238.50528113 239.093448 -238.50874341 237.11086267 C-238.43009787 200.68213725 -229.83385534 163.59139033 -212.45214844 131.43115234 C-211.3077844 129.31309325 -210.18979388 127.18208365 -209.0703125 125.05078125 C-194.25579222 97.2514702 -173.22799906 71.83245092 -148.375 52.4375 C-147.00601563 51.36048828 -147.00601563 51.36048828 -145.609375 50.26171875 C-117.79111424 28.86597994 -85.77456486 13.08549505 -51.5 5.3125 C-50.85401855 5.16586914 -50.20803711 5.01923828 -49.54248047 4.86816406 C-47.15964423 4.35465628 -44.769032 3.89620068 -42.375 3.4375 C-41.14668457 3.18379639 -39.91836914 2.93009277 -38.65283203 2.66870117 C-25.77479269 0.1524114 -13.09000117 -0.07762523 0 0 Z " fill="#E63710" transform="translate(341.375,196.5625)"/>
<path d="M0 0 C1.10172546 0.00337372 2.20345093 0.00674744 3.33856201 0.01022339 C29.28961616 0.12527593 52.9061803 3.16802897 77.625 11.4375 C78.85041504 11.83727051 78.85041504 11.83727051 80.10058594 12.24511719 C107.31706202 21.21968543 132.67943666 35.0226896 154.625 53.4375 C155.25374023 53.96472656 155.88248047 54.49195313 156.53027344 55.03515625 C167.65140643 64.40148628 167.65140643 64.40148628 171.625 68.4375 C169.1707323 70.92072005 166.71091435 73.39836813 164.25 75.875 C163.55132812 76.58205078 162.85265625 77.28910156 162.1328125 78.01757812 C161.4625 78.69111328 160.7921875 79.36464844 160.1015625 80.05859375 C159.48361816 80.6817749 158.86567383 81.30495605 158.22900391 81.94702148 C156.625 83.4375 156.625 83.4375 154.625 84.4375 C153.8825 85.7059375 153.8825 85.7059375 153.125 87 C152.63 87.804375 152.135 88.60875 151.625 89.4375 C150.965 89.4375 150.305 89.4375 149.625 89.4375 C149.521875 90.076875 149.41875 90.71625 149.3125 91.375 C148.9721875 92.3959375 148.9721875 92.3959375 148.625 93.4375 C147.14 93.9325 147.14 93.9325 145.625 94.4375 C145.25582008 95.76135614 144.92866615 97.09709866 144.625 98.4375 C143.6810546 99.91241469 142.67217558 101.34649384 141.625 102.75 C131.49273163 116.9020231 123.38862296 132.41988244 116.625 148.4375 C115.99271484 149.90316406 115.99271484 149.90316406 115.34765625 151.3984375 C113.09170131 156.69502737 111.09760769 161.86262804 109.625 167.4375 C109.13069235 168.87696733 108.63023521 170.31433164 108.125 171.75 C106.73592255 175.84044917 105.87706675 179.92109676 105.09375 184.1640625 C104.625 186.4375 104.625 186.4375 103.5625 189.5 C102.49478636 192.84550275 102.16173188 195.9967174 101.87109375 199.484375 C101.625 201.4375 101.625 201.4375 100.625 203.4375 C100.41817596 205.5172306 100.25833446 207.60176812 100.125 209.6875 C99.91047383 213.01265564 99.65909384 216.2379879 99.09765625 219.5234375 C98.63925847 222.34959242 98.52387498 224.95424842 98.5625 227.8125 C98.57603516 229.12347656 98.57603516 229.12347656 98.58984375 230.4609375 C98.60724609 231.43933594 98.60724609 231.43933594 98.625 232.4375 C96.60780373 229.4117056 96.05643312 227.10796159 95.38378906 223.58642578 C90.57999041 198.43743612 76.44856462 177.50648856 55.76953125 162.34375 C46.72993287 156.38609327 36.90190936 152.70967483 26.625 149.4375 C25.53171387 149.08461914 24.43842773 148.73173828 23.31201172 148.36816406 C17.52705554 146.90794337 11.74937926 147.06557288 5.82177734 147.06689453 C3.65770039 147.06256542 1.49574255 147.02631041 -0.66796875 146.98828125 C-23.81474361 146.80209733 -45.35318992 156.26677426 -62.078125 172.14453125 C-63.21507812 173.27955078 -63.21507812 173.27955078 -64.375 174.4375 C-65.51195312 175.55705078 -65.51195312 175.55705078 -66.671875 176.69921875 C-84.03321262 194.80888989 -91.88209786 219.07104437 -91.76026917 243.84086609 C-91.76428752 245.23517121 -91.76962033 246.62947303 -91.77613491 248.02376872 C-91.7901491 251.81330033 -91.78589954 255.60261494 -91.77842176 259.39215672 C-91.77364863 263.49511172 -91.78627498 267.59801906 -91.79678345 271.70095825 C-91.81270339 278.7981619 -91.81803979 285.89530857 -91.81625557 292.99252892 C-91.81386373 303.26567328 -91.82991016 313.53872715 -91.85070812 323.81184778 C-91.88417832 340.49833787 -91.90587662 357.18481982 -91.91870117 373.87133789 C-91.91985541 375.36689 -91.91985541 375.36689 -91.92103296 376.89265529 C-91.92413529 380.93254462 -91.9272181 384.97243396 -91.930273 389.01232333 C-91.93880808 400.13980936 -91.9497091 411.26729256 -91.96166992 422.39477539 C-91.96273794 423.39149534 -91.96380596 424.38821528 -91.96490634 425.41513886 C-91.98301112 442.04604043 -92.00900742 458.67692266 -92.03980106 475.30780536 C-92.05832515 485.5533895 -92.06926896 495.79893019 -92.07032298 506.04453132 C-92.07142815 513.0634981 -92.0793947 520.08243508 -92.09270663 527.10138925 C-92.10010849 531.14732653 -92.10423399 535.19319859 -92.09958839 539.23914146 C-92.09537056 542.94807143 -92.10038602 546.65687393 -92.11249625 550.36578546 C-92.11654215 552.33136631 -92.11081374 554.29695992 -92.10465056 556.26253527 C-92.20565904 577.61712089 -98.99865427 595.51377012 -113.5625 611.1875 C-121.7082551 618.92027102 -131.69768527 624.97458711 -142.375 628.4375 C-144.169375 629.0253125 -144.169375 629.0253125 -146 629.625 C-165.58984832 634.3410746 -186.22447955 631.93877405 -203.61914062 621.57568359 C-221.16089065 610.2047661 -232.3104767 593.62111493 -237.375 573.4375 C-238.68070704 566.58200144 -238.51398986 559.74131954 -238.50198364 552.7822113 C-238.50313664 551.38371508 -238.50472537 549.98521916 -238.50671089 548.58672386 C-238.51087995 544.75302456 -238.50882441 540.91935019 -238.50572467 537.0856508 C-238.50346078 532.94708805 -238.50695522 528.80852956 -238.50970459 524.66996765 C-238.51415149 516.5641902 -238.51319037 508.45842201 -238.51029195 500.3526442 C-238.5080326 493.76063412 -238.50772771 487.16862664 -238.50881577 480.57661629 C-238.508969 479.63798402 -238.50912223 478.69935174 -238.50928011 477.73227607 C-238.50959984 475.82530705 -238.50992405 473.91833802 -238.5102527 472.011369 C-238.51310461 454.12647043 -238.50982556 436.24157699 -238.50445233 418.35667927 C-238.49998966 403.02871785 -238.50075635 387.70076401 -238.50537109 372.37280273 C-238.51073076 354.56228433 -238.51282457 336.75177043 -238.50975883 318.94125134 C-238.50944029 317.03919892 -238.50912592 315.13714649 -238.50881577 313.23509407 C-238.50866149 312.29933146 -238.50850721 311.36356886 -238.50834826 310.39944981 C-238.50748691 303.82309135 -238.50893788 297.24673575 -238.51129532 290.67037773 C-238.51410921 282.64431416 -238.51332185 274.61826035 -238.50801457 266.59219789 C-238.50539816 262.50139611 -238.50433727 258.41061059 -238.50766373 254.31980896 C-238.51066973 250.56606987 -238.5089631 246.8123619 -238.50368617 243.05862559 C-238.502061 241.0760379 -238.50528113 239.093448 -238.50874341 237.11086267 C-238.43009787 200.68213725 -229.83385534 163.59139033 -212.45214844 131.43115234 C-211.3077844 129.31309325 -210.18979388 127.18208365 -209.0703125 125.05078125 C-194.25579222 97.2514702 -173.22799906 71.83245092 -148.375 52.4375 C-147.00601563 51.36048828 -147.00601563 51.36048828 -145.609375 50.26171875 C-117.79111424 28.86597994 -85.77456486 13.08549505 -51.5 5.3125 C-50.85401855 5.16586914 -50.20803711 5.01923828 -49.54248047 4.86816406 C-47.15964423 4.35465628 -44.769032 3.89620068 -42.375 3.4375 C-41.14668457 3.18379639 -39.91836914 2.93009277 -38.65283203 2.66870117 C-25.77479269 0.1524114 -13.09000117 -0.07762523 0 0 Z " fill="#F04C0A" transform="translate(341.375,196.5625)"/>
</svg>