<svg xmlns="http://www.w3.org/2000/svg" viewBox="-18 -40 1156 243" role="img" aria-label="Marteso">
  <defs><linearGradient id="grad" gradientUnits="userSpaceOnUse" x1="0" y1="-22" x2="1151" y2="185">
  <stop offset="0%" stop-color="#F95A1C"/><stop offset="100%" stop-color="#DD3418"/></linearGradient></defs>
  <g fill="none" stroke="url(#grad)" stroke-width="40" stroke-linecap="round" stroke-linejoin="round">
    <path d="M 18.16 166.33 L 18.16 77.59 A 46.92 46.92 0 0 1 112 77.59 L 112 145.93" stroke-width="40.8"/>
    <path d="M 112 145.93 L 112 77.59 A 46.92 46.92 0 0 1 205.84 77.59 L 205.84 166.33" stroke-width="40.8"/>
    <path d="M 321.3 36.5 A 62 62 0 1 1 321.3 160.5 A 62 62 0 1 1 321.3 36.5 Z"/>
    <path d="M 383.3 32 L 383.3 165"/>
    <path d="M 440.8 165 L 440.8 32"/>
    <path d="M 440.8 78 A 46 46 0 0 1 486.8 32"/>
    <path d="M 557.4 -2 L 557.4 129 A 40 40 0 0 0 597.4 169"/>
    <path d="M 539.4 32 L 600.0 32"/>
    <path d="M 765.4 147.92 A 66.5 66.5 0 1 1 787.04 91.55"/>
    <path d="M 791.4 98.5 L 654.4 98.5" stroke-width="30"/>
    <path d="M 930.25 65.5 A 48 33 0 1 0 882.25 98.5 A 48 33 0 1 1 834.25 131.5"/>
    <path d="M 1039.25 36.5 A 62 62 0 1 1 1039.25 160.5 A 62 62 0 1 1 1039.25 36.5 Z"/>
  </g>
</svg>